<mxfile host="app.diagrams.net" modified="2024-05-31T06:12:57.010Z" agent="Mozilla/5.0 (Windows NT 10.0; Win64; x64) AppleWebKit/537.36 (KHTML, like Gecko) Chrome/125.0.0.0 Safari/537.36" version="24.4.10" etag="LvZD9-SmOKMieZTTIfl-" type="github">
  <diagram name="第 1 页" id="MY1Mv8rdpInP4jTcCOC-">
    <mxGraphModel>
      <root>
        <mxCell id="0" />
        <mxCell id="1" parent="0" />
      </root>
    </mxGraphModel>
  </diagram>
</mxfile>
